<svg width="419" height="160" viewBox="0 0 419 160" fill="none" xmlns="http://www.w3.org/2000/svg">
<path d="M149.52 71.1462C155.832 51.9539 166.154 8.96313 131.352 6.91594C125.722 6.31885 111.084 7.93953 97.5731 19.199C80.6839 33.2734 65.33 23.8782 60.2121 19.199C51.2557 11.0104 44.6024 3.29994 31.8075 6.91594C20.0362 10.2426 7.49723 20.7344 6.21775 34.041C4.93826 47.3477 8.77674 65.5164 31.8075 73.7051C78.3808 90.2646 119.068 68.8431 134.934 95.2005C138.09 101.171 140.615 117.566 130.584 134.353C120.553 151.14 110.624 153.801 101.667 153.801C90.9198 153.801 88.3608 146.175 87.3372 120.79C87.3372 111.578 73.2629 111.066 72.4952 120.79C71.4716 129.747 71.9834 152.266 59.9562 153.033C47.929 153.801 27.4572 147.659 13.3829 94.1769" stroke="url(#paint0_linear_6_652)" stroke-width="10.85" stroke-linecap="round"/>
<path d="M209.226 111.407C204.818 111.407 200.58 110.701 196.511 109.288C192.498 107.875 189.39 106.01 187.186 103.693C187.186 103.693 185.414 101.212 186.202 99.8988C187.702 97.3988 189.644 98.8615 189.644 98.8615C191.792 101.009 194.646 102.761 198.206 104.117C201.766 105.417 205.44 106.067 209.226 106.067C214.538 106.067 218.522 105.106 221.178 103.185C223.835 101.207 225.163 98.6637 225.163 95.5555C225.163 93.182 224.428 91.2888 222.959 89.876C221.546 88.4632 219.794 87.3894 217.703 86.6548C215.612 85.8636 212.702 85.0159 208.972 84.1117C204.507 82.9814 200.947 81.9077 198.291 80.8905C195.635 79.8167 193.346 78.2061 191.424 76.0586C189.56 73.9111 188.627 71.0007 188.627 67.3274C188.627 64.3322 189.418 61.6196 191.001 59.1895C192.583 56.703 195.013 54.725 198.291 53.2557C201.569 51.7864 205.637 51.0517 210.498 51.0517C213.888 51.0517 217.194 51.5321 220.416 52.4928C223.693 53.397 226.519 54.6685 228.892 56.3074C228.892 56.3074 230.42 57.4029 229.702 59.3988C228.892 61.6474 226.773 61.3088 226.773 61.3088C224.287 59.6699 221.631 58.4549 218.805 57.6637C215.979 56.816 213.21 56.3922 210.498 56.3922C205.298 56.3922 201.371 57.4094 198.715 59.4438C196.115 61.4218 194.815 63.9931 194.815 67.1578C194.815 69.5314 195.522 71.4528 196.934 72.9222C198.404 74.335 200.212 75.437 202.36 76.2282C204.564 76.9628 207.502 77.7823 211.176 78.6865C215.527 79.7602 219.031 80.8339 221.687 81.9077C224.4 82.9249 226.688 84.5073 228.553 86.6548C230.418 88.7457 231.351 91.5996 231.351 95.2165C231.351 98.2116 230.531 100.953 228.892 103.439C227.31 105.869 224.852 107.819 221.518 109.288C218.183 110.701 214.086 111.407 209.226 111.407Z" fill="url(#paint1_linear_6_652)"/>
<path d="M299.356 65.9711C304.95 65.9711 309.33 67.5817 312.495 70.8029C315.716 74.0242 317.327 78.7712 317.327 85.0442V110.899H311.308V85.6375C311.308 81.0035 310.178 77.4714 307.917 75.0414C305.713 72.6113 302.577 71.3963 298.508 71.3963C293.874 71.3963 290.229 72.8374 287.573 75.7195C284.917 78.5452 283.588 82.4728 283.588 87.5025V110.899H277.57V85.6375C277.57 81.0035 276.44 77.4714 274.179 75.0414C271.975 72.6113 268.81 71.3963 264.685 71.3963C260.107 71.3963 256.462 72.8374 253.75 75.7195C251.094 78.5452 249.766 82.4728 249.766 87.5025V110.899H243.747V66.3102C243.747 66.3102 243.702 63.8988 246.702 63.8988C249.702 63.8988 249.511 66.3102 249.511 66.3102V74.448C251.094 71.7354 253.298 69.6444 256.123 68.1751C258.949 66.7057 262.198 65.9711 265.872 65.9711C269.602 65.9711 272.823 66.7623 275.535 68.3446C278.305 69.927 280.367 72.2723 281.724 75.3805C283.362 72.4418 285.708 70.153 288.759 68.5142C291.868 66.8188 295.4 65.9711 299.356 65.9711Z" fill="url(#paint2_linear_6_652)"/>
<path d="M334.558 66.4374H340.577V111.026H334.558V66.4374ZM337.61 59.689C336.367 59.689 335.321 59.2651 334.473 58.4174C333.626 57.5697 333.202 56.5525 333.202 55.3657C333.202 54.2355 333.626 53.2465 334.473 52.3988C334.202 54.8988 336.368 56.5261 337.611 56.5261C339.313 56.5261 341.202 54.8988 340.746 52.3988C341.594 53.19 342.018 54.1507 342.018 55.281C342.018 56.5242 341.594 57.5697 340.746 58.4174C339.899 59.2651 338.853 59.689 337.61 59.689Z" fill="url(#paint3_linear_6_652)"/>
<path d="M356.414 48H362.432V110.899H356.414V48Z" fill="url(#paint4_linear_6_652)"/>
<path d="M418.003 90.4694H380.705C381.044 95.1034 382.824 98.8615 386.045 101.744C389.267 104.569 393.335 105.982 398.252 105.982C401.021 105.982 403.564 105.502 405.881 104.541C408.198 103.524 410.205 102.055 411.9 100.133C411.9 100.133 412.702 98.8988 415.202 100.399C417.021 101.49 415.291 104.032 415.291 104.032C413.313 106.406 410.826 108.214 407.831 109.458C404.892 110.701 401.643 111.323 398.083 111.323C393.505 111.323 389.436 110.362 385.876 108.44C382.372 106.463 379.631 103.75 377.653 100.303C375.675 96.8553 374.686 92.9559 374.686 88.6045C374.686 84.253 375.619 80.3536 377.484 76.9063C379.405 73.459 382.005 70.7747 385.282 68.8532C388.617 66.9318 392.346 65.9711 396.472 65.9711C400.597 65.9711 404.299 66.9318 407.577 68.8532C410.854 70.7747 413.426 73.459 415.291 76.9063C417.156 80.2971 418.088 84.1965 418.088 88.6045L418.003 90.4694ZM396.472 71.142C392.177 71.142 388.56 72.5266 385.621 75.2957C382.739 78.0083 381.1 81.5686 380.705 85.9766H412.324C411.928 81.5686 410.261 78.0083 407.322 75.2957C404.44 72.5266 400.823 71.142 396.472 71.142Z" fill="url(#paint5_linear_6_652)"/>
<defs>
<linearGradient id="paint0_linear_6_652" x1="81" y1="6" x2="81" y2="153.801" gradientUnits="userSpaceOnUse">
<stop stop-color="#3182CE"/>
<stop offset="1" stop-color="#63B3ED"/>
</linearGradient>
<linearGradient id="paint1_linear_6_652" x1="302.044" y1="48" x2="302.044" y2="111.407" gradientUnits="userSpaceOnUse">
<stop stop-color="#3182CE"/>
<stop offset="1" stop-color="#63B3ED"/>
</linearGradient>
<linearGradient id="paint2_linear_6_652" x1="302.044" y1="48" x2="302.044" y2="111.407" gradientUnits="userSpaceOnUse">
<stop stop-color="#3182CE"/>
<stop offset="1" stop-color="#63B3ED"/>
</linearGradient>
<linearGradient id="paint3_linear_6_652" x1="302.044" y1="48" x2="302.044" y2="111.407" gradientUnits="userSpaceOnUse">
<stop stop-color="#3182CE"/>
<stop offset="1" stop-color="#63B3ED"/>
</linearGradient>
<linearGradient id="paint4_linear_6_652" x1="302.044" y1="48" x2="302.044" y2="111.407" gradientUnits="userSpaceOnUse">
<stop stop-color="#3182CE"/>
<stop offset="1" stop-color="#63B3ED"/>
</linearGradient>
<linearGradient id="paint5_linear_6_652" x1="302.044" y1="48" x2="302.044" y2="111.407" gradientUnits="userSpaceOnUse">
<stop stop-color="#3182CE"/>
<stop offset="1" stop-color="#63B3ED"/>
</linearGradient>
</defs>
</svg>
