<svg width="154" height="165" viewBox="0 0 154 165" fill="none" xmlns="http://www.w3.org/2000/svg">
<path d="M122.397 48.2132C126.584 35.4824 133.431 6.96552 110.345 5.60757C106.611 5.2115 96.9018 6.28654 87.9393 13.7553C76.7362 23.0912 66.5516 16.8591 63.1568 13.7553C57.2157 8.32353 52.8024 3.20898 44.3152 5.60757C36.507 7.81423 28.1896 14.7737 27.3408 23.6004C26.4921 32.427 29.0383 44.4788 44.3152 49.9106C75.2086 60.8949 102.198 46.6855 112.722 64.1691C114.815 68.1298 116.49 79.0047 109.836 90.1399C103.182 101.275 96.5962 103.04 90.6552 103.04C83.526 103.04 81.8285 97.982 81.1496 81.1434C81.1496 75.0327 71.8137 74.6932 71.3044 81.1434C70.6255 87.0845 70.965 102.022 62.987 102.531C55.0091 103.04 41.4296 98.9665 32.0937 63.4901" stroke="url(#paint0_linear_8_47)" stroke-width="8.33105" stroke-linecap="round"/>
<path d="M15.4064 165C12.4825 165 9.67099 164.531 6.97197 163.594C4.31043 162.657 2.24867 161.42 0.7867 159.883C0.7867 159.883 -0.388591 158.237 0.133879 157.366C1.12888 155.708 2.41736 156.678 2.41736 156.678C3.84185 158.102 5.73491 159.265 8.09656 160.164C10.4582 161.026 12.8948 161.458 15.4064 161.458C18.9301 161.458 21.5729 160.82 23.3348 159.546C25.0967 158.234 25.9776 156.547 25.9776 154.485C25.9776 152.911 25.4903 151.655 24.5156 150.718C23.5785 149.78 22.4164 149.068 21.0294 148.581C19.6424 148.056 17.7118 147.494 15.2377 146.894C12.2763 146.144 9.91465 145.432 8.15279 144.757C6.39093 144.045 4.87273 142.977 3.59818 141.552C2.36113 140.128 1.7426 138.197 1.7426 135.761C1.7426 133.774 2.26742 131.974 3.31704 130.363C4.36666 128.713 5.97857 127.401 8.15279 126.426C10.327 125.452 13.026 124.964 16.2499 124.964C18.4991 124.964 20.692 125.283 22.8287 125.92C25.003 126.52 26.8773 127.364 28.4517 128.451C28.4517 128.451 29.4652 129.177 28.9886 130.501C28.4517 131.993 27.046 131.768 27.046 131.768C25.3966 130.681 23.6347 129.875 21.7604 129.35C19.8861 128.788 18.0492 128.507 16.2499 128.507C12.8011 128.507 10.1958 129.182 8.43394 130.531C6.70956 131.843 5.84737 133.549 5.84737 135.648C5.84737 137.223 6.31595 138.497 7.25311 139.472C8.22776 140.409 9.42733 141.14 10.8518 141.665C12.3138 142.152 14.2631 142.696 16.6997 143.295C19.5862 144.008 21.9103 144.72 23.6722 145.432C25.4715 146.107 26.9897 147.156 28.2268 148.581C29.4639 149.968 30.0824 151.861 30.0824 154.26C30.0824 156.247 29.5388 158.065 28.4517 159.714C27.4021 161.326 25.7714 162.62 23.5597 163.594C21.348 164.531 18.6303 165 15.4064 165Z" fill="url(#paint1_linear_8_47)"/>
<path d="M75.1918 134.861C78.9029 134.861 81.8081 135.929 83.9074 138.066C86.0441 140.203 87.1125 143.352 87.1125 147.513V164.663H83.1202V147.906C83.1202 144.832 82.3704 142.489 80.871 140.877C79.409 139.266 77.3285 138.46 74.6295 138.46C71.5556 138.46 69.1377 139.415 67.3758 141.327C65.614 143.202 64.7331 145.807 64.7331 149.143V164.663H60.7407V147.906C60.7407 144.832 59.991 142.489 58.4916 140.877C57.0296 139.266 54.9303 138.46 52.1938 138.46C49.1574 138.46 46.7395 139.415 44.9402 141.327C43.1783 143.202 42.2974 145.807 42.2974 149.143V164.663H38.3051V135.086C38.3051 135.086 38.2752 133.486 40.2652 133.486C42.2551 133.486 42.1287 135.086 42.1287 135.086V140.484C43.1783 138.684 44.6403 137.298 46.5146 136.323C48.389 135.348 50.5444 134.861 52.981 134.861C55.4552 134.861 57.5919 135.386 59.3912 136.435C61.2281 137.485 62.5963 139.041 63.496 141.102C64.5831 139.153 66.1388 137.635 68.1631 136.548C70.2248 135.423 72.5677 134.861 75.1918 134.861Z" fill="url(#paint2_linear_8_47)"/>
<path d="M98.5426 135.17H102.535V164.747H98.5426V135.17ZM100.567 130.694C99.7422 130.694 99.0487 130.413 98.4864 129.85C97.9241 129.288 97.6429 128.613 97.6429 127.826C97.6429 127.076 97.9241 126.42 98.4864 125.858C98.3063 127.516 99.7432 128.596 100.568 128.596C101.697 128.596 102.95 127.516 102.647 125.858C103.21 126.383 103.491 127.02 103.491 127.77C103.491 128.595 103.21 129.288 102.647 129.85C102.085 130.413 101.392 130.694 100.567 130.694Z" fill="url(#paint3_linear_8_47)"/>
<path d="M113.04 122.94H117.032V164.663H113.04V122.94Z" fill="url(#paint4_linear_8_47)"/>
<path d="M153.894 151.111H129.153C129.378 154.185 130.559 156.678 132.695 158.59C134.832 160.464 137.531 161.401 140.792 161.401C142.629 161.401 144.316 161.083 145.853 160.445C147.39 159.771 148.721 158.796 149.845 157.521C149.845 157.521 150.377 156.703 152.036 157.698C153.242 158.422 152.095 160.108 152.095 160.108C150.783 161.682 149.133 162.882 147.146 163.707C145.197 164.531 143.042 164.944 140.68 164.944C137.644 164.944 134.945 164.306 132.583 163.032C130.259 161.72 128.441 159.921 127.129 157.634C125.817 155.347 125.161 152.761 125.161 149.874C125.161 146.988 125.779 144.401 127.016 142.115C128.291 139.828 130.015 138.047 132.189 136.773C134.401 135.498 136.875 134.861 139.612 134.861C142.348 134.861 144.804 135.498 146.978 136.773C149.152 138.047 150.858 139.828 152.095 142.115C153.332 144.364 153.95 146.95 153.95 149.874L153.894 151.111ZM139.612 138.291C136.763 138.291 134.364 139.209 132.414 141.046C130.502 142.845 129.415 145.207 129.153 148.131H150.127C149.864 145.207 148.758 142.845 146.809 141.046C144.897 139.209 142.498 138.291 139.612 138.291Z" fill="url(#paint5_linear_8_47)"/>
<defs>
<linearGradient id="paint0_linear_8_47" x1="76.9459" y1="5" x2="76.9459" y2="103.04" gradientUnits="userSpaceOnUse">
<stop stop-color="#3182CE"/>
<stop offset="1" stop-color="#63B3ED"/>
</linearGradient>
<linearGradient id="paint1_linear_8_47" x1="76.9751" y1="122.94" x2="76.9751" y2="165" gradientUnits="userSpaceOnUse">
<stop stop-color="#3182CE"/>
<stop offset="1" stop-color="#63B3ED"/>
</linearGradient>
<linearGradient id="paint2_linear_8_47" x1="76.9751" y1="122.94" x2="76.9751" y2="165" gradientUnits="userSpaceOnUse">
<stop stop-color="#3182CE"/>
<stop offset="1" stop-color="#63B3ED"/>
</linearGradient>
<linearGradient id="paint3_linear_8_47" x1="76.9751" y1="122.94" x2="76.9751" y2="165" gradientUnits="userSpaceOnUse">
<stop stop-color="#3182CE"/>
<stop offset="1" stop-color="#63B3ED"/>
</linearGradient>
<linearGradient id="paint4_linear_8_47" x1="76.9751" y1="122.94" x2="76.9751" y2="165" gradientUnits="userSpaceOnUse">
<stop stop-color="#3182CE"/>
<stop offset="1" stop-color="#63B3ED"/>
</linearGradient>
<linearGradient id="paint5_linear_8_47" x1="76.9751" y1="122.94" x2="76.9751" y2="165" gradientUnits="userSpaceOnUse">
<stop stop-color="#3182CE"/>
<stop offset="1" stop-color="#63B3ED"/>
</linearGradient>
</defs>
</svg>
