<svg width="162" height="160" viewBox="0 0 162 160" fill="none" xmlns="http://www.w3.org/2000/svg">
<path d="M149.52 71.1462C155.832 51.9539 166.154 8.96313 131.352 6.91594C125.722 6.31885 111.084 7.93953 97.5731 19.199C80.6839 33.2734 65.33 23.8782 60.2121 19.199C51.2557 11.0104 44.6024 3.29994 31.8075 6.91594C20.0362 10.2426 7.49723 20.7344 6.21775 34.041C4.93826 47.3477 8.77674 65.5164 31.8075 73.7051C78.3808 90.2646 119.068 68.8431 134.934 95.2005C138.09 101.171 140.615 117.566 130.584 134.353C120.553 151.14 110.624 153.801 101.667 153.801C90.9198 153.801 88.3608 146.175 87.3372 120.79C87.3372 111.578 73.2629 111.066 72.4952 120.79C71.4716 129.747 71.9834 152.266 59.9562 153.033C47.929 153.801 27.4572 147.659 13.3829 94.1769" stroke="url(#paint0_linear_16_107)" stroke-width="10.85" stroke-linecap="round"/>
<defs>
<linearGradient id="paint0_linear_16_107" x1="81" y1="6" x2="81" y2="153.801" gradientUnits="userSpaceOnUse">
<stop stop-color="#3182CE"/>
<stop offset="1" stop-color="#63B3ED"/>
</linearGradient>
</defs>
</svg>
