<svg width="233" height="65" viewBox="0 0 233 65" fill="none" xmlns="http://www.w3.org/2000/svg">
<path d="M23.226 64.2084C18.818 64.2084 14.5795 63.502 10.5106 62.0892C6.4982 60.6764 3.38999 58.8114 1.18599 56.4944C1.18599 56.4944 -0.585821 54.0126 0.20183 52.6998C1.70184 50.1998 3.6443 51.6626 3.6443 51.6626C5.79179 53.8101 8.64568 55.5619 12.206 56.9183C15.7663 58.218 19.4396 58.868 23.226 58.868C28.5382 58.868 32.5224 57.9072 35.1785 55.9858C37.8346 54.0078 39.1626 51.4648 39.1626 48.3566C39.1626 45.983 38.4279 44.0898 36.9586 42.677C35.5458 41.2642 33.7939 40.1905 31.7029 39.4558C29.6119 38.6646 26.7015 37.8169 22.9717 36.9127C18.5072 35.7825 14.9469 34.7087 12.2908 33.6915C9.63466 32.6177 7.34589 31.0071 5.42445 28.8596C3.55953 26.7122 2.62707 23.8017 2.62707 20.1284C2.62707 17.1332 3.41825 14.4206 5.00061 11.9906C6.58297 9.504 9.01302 7.52605 12.2908 6.05672C15.5685 4.58739 19.6374 3.85272 24.4975 3.85272C27.8883 3.85272 31.1943 4.33308 34.4155 5.2938C37.6933 6.198 40.5189 7.46954 42.8925 9.10841C42.8925 9.10841 44.4203 10.2039 43.7018 12.1998C42.8925 14.4484 40.7732 14.1098 40.7732 14.1098C38.2867 12.4709 35.6306 11.2559 32.8049 10.4647C29.9793 9.61703 27.2101 9.19318 24.4975 9.19318C19.2983 9.19318 15.3707 10.2104 12.7146 12.2449C10.115 14.2228 8.81522 16.7942 8.81522 19.9589C8.81522 22.3324 9.52163 24.2538 10.9345 25.7232C12.4038 27.136 14.2122 28.238 16.3597 29.0292C18.5637 29.7638 21.5024 30.5833 25.1757 31.4875C29.5272 32.5612 33.031 33.635 35.6871 34.7087C38.3997 35.7259 40.6885 37.3083 42.5534 39.4558C44.4183 41.5468 45.3508 44.4007 45.3508 48.0175C45.3508 51.0127 44.5313 53.7535 42.8925 56.2401C41.3101 58.6702 38.8518 60.6198 35.5175 62.0892C32.1833 63.502 28.0861 64.2084 23.226 64.2084Z" fill="url(#paint0_linear_148_93)"/>
<path d="M113.356 18.7721C118.95 18.7721 123.33 20.3827 126.495 23.6039C129.716 26.8252 131.327 31.5723 131.327 37.8452V63.6998H125.308V38.4386C125.308 33.8045 124.178 30.2725 121.917 27.8424C119.713 25.4124 116.577 24.1973 112.508 24.1973C107.874 24.1973 104.229 25.6384 101.573 28.5206C98.9165 31.3462 97.5885 35.2738 97.5885 40.3035V63.6998H91.5699V38.4386C91.5699 33.8045 90.4396 30.2725 88.1791 27.8424C85.9751 25.4124 82.8104 24.1973 78.6849 24.1973C74.1074 24.1973 70.4623 25.6384 67.7497 28.5206C65.0936 31.3462 63.7656 35.2738 63.7656 40.3035V63.6998H57.7469V19.1112C57.7469 19.1112 57.7018 16.6998 60.7018 16.6998C63.7018 16.6998 63.5112 19.1112 63.5112 19.1112V27.249C65.0936 24.5364 67.2976 22.4454 70.1232 20.9761C72.9489 19.5068 76.1984 18.7721 79.8717 18.7721C83.6016 18.7721 86.8228 19.5633 89.5354 21.1456C92.3045 22.728 94.3672 25.0733 95.7236 28.1815C97.3624 25.2428 99.7077 22.9541 102.759 21.3152C105.868 19.6198 109.4 18.7721 113.356 18.7721Z" fill="url(#paint1_linear_148_93)"/>
<path d="M148.558 19.2384H154.577V63.8271H148.558V19.2384ZM151.61 12.49C150.367 12.49 149.321 12.0661 148.473 11.2184C147.626 10.3708 147.202 9.35352 147.202 8.16675C147.202 7.0365 147.626 6.04752 148.473 5.19983C148.202 7.69983 150.368 9.3271 151.611 9.3271C153.313 9.3271 155.202 7.69983 154.746 5.19983C155.594 5.99101 156.018 6.95173 156.018 8.08199C156.018 9.32527 155.594 10.3708 154.746 11.2184C153.899 12.0661 152.853 12.49 151.61 12.49Z" fill="url(#paint2_linear_148_93)"/>
<path d="M170.414 0.801025H176.432V63.6998H170.414V0.801025Z" fill="url(#paint3_linear_148_93)"/>
<path d="M232.003 43.2704H194.705C195.044 47.9045 196.824 51.6626 200.045 54.5447C203.267 57.3704 207.335 58.7832 212.252 58.7832C215.021 58.7832 217.564 58.3028 219.881 57.3421C222.198 56.3249 224.205 54.8555 225.9 52.9341C225.9 52.9341 226.702 51.6998 229.202 53.1998C231.021 54.2912 229.291 56.8335 229.291 56.8335C227.313 59.207 224.826 61.0154 221.831 62.2587C218.892 63.502 215.643 64.1236 212.083 64.1236C207.505 64.1236 203.436 63.1629 199.876 61.2415C196.372 59.2635 193.631 56.5509 191.653 53.1036C189.675 49.6564 188.686 45.757 188.686 41.4055C188.686 37.054 189.619 33.1546 191.484 29.7073C193.405 26.2601 196.005 23.5757 199.282 21.6543C202.617 19.7328 206.346 18.7721 210.472 18.7721C214.597 18.7721 218.299 19.7328 221.577 21.6543C224.854 23.5757 227.426 26.2601 229.291 29.7073C231.156 33.0981 232.088 36.9975 232.088 41.4055L232.003 43.2704ZM210.472 23.943C206.177 23.943 202.56 25.3276 199.621 28.0967C196.739 30.8093 195.1 34.3696 194.705 38.7776H226.324C225.928 34.3696 224.261 30.8093 221.322 28.0967C218.44 25.3276 214.823 23.943 210.472 23.943Z" fill="url(#paint4_linear_148_93)"/>
<defs>
<linearGradient id="paint0_linear_148_93" x1="116.044" y1="0.801025" x2="116.044" y2="64.2084" gradientUnits="userSpaceOnUse">
<stop stop-color="#3182CE"/>
<stop offset="1" stop-color="#63B3ED"/>
</linearGradient>
<linearGradient id="paint1_linear_148_93" x1="116.044" y1="0.801025" x2="116.044" y2="64.2084" gradientUnits="userSpaceOnUse">
<stop stop-color="#3182CE"/>
<stop offset="1" stop-color="#63B3ED"/>
</linearGradient>
<linearGradient id="paint2_linear_148_93" x1="116.044" y1="0.801025" x2="116.044" y2="64.2084" gradientUnits="userSpaceOnUse">
<stop stop-color="#3182CE"/>
<stop offset="1" stop-color="#63B3ED"/>
</linearGradient>
<linearGradient id="paint3_linear_148_93" x1="116.044" y1="0.801025" x2="116.044" y2="64.2084" gradientUnits="userSpaceOnUse">
<stop stop-color="#3182CE"/>
<stop offset="1" stop-color="#63B3ED"/>
</linearGradient>
<linearGradient id="paint4_linear_148_93" x1="116.044" y1="0.801025" x2="116.044" y2="64.2084" gradientUnits="userSpaceOnUse">
<stop stop-color="#3182CE"/>
<stop offset="1" stop-color="#63B3ED"/>
</linearGradient>
</defs>
</svg>
